<?xml version="1.0" encoding="UTF-8"?>
<svg id="Layer_1" data-name="Layer 1" xmlns="http://www.w3.org/2000/svg" viewBox="0 0 96 96">
  <defs>
    <style>
      .cls-1 {
        fill: #3649f1;
      }
    </style>
  </defs>
  <path class="cls-1" d="M48,0c-13.26,0-25.26,5.37-33.94,14.06C5.37,22.74,0,34.74,0,48s5.37,25.26,14.06,33.94c8.68,8.69,20.68,14.06,33.94,14.06s25.26-5.37,33.94-14.06c8.69-8.68,14.06-20.68,14.06-33.94C96,21.49,74.51,0,48,0ZM69.42,57.33l-19.21-10.77c-1.37-.77-3.04-.76-4.41.02l-11.98,6.51v9.02l12.26-6.67c1.19-.68,2.65-.68,3.84-.01l17.49,9.79h0c1.26.71,2.01,1.88,2.01,3.13v6.61l-21.41-12.01-21.43,12.01v-24.46c0-.85.52-1.64,1.37-2.13l17.85-10c1.37-.77,3.03-.77,4.4-.01l11.18,6.23v-8.18l-11.18-6.23c-1.37-.76-3.03-.76-4.4,0l-19.22,10.77v-6.73c0-.91.55-1.77,1.47-2.28l17.75-9.95c1.37-.76,3.03-.76,4.4,0l17.84,10c.86.48,1.38,1.29,1.38,2.15v23.19Z"/>
</svg>