<svg xmlns="http://www.w3.org/2000/svg" width="32.298" height="32" viewBox="0 0 32.298 32">
  <g id="jquery" transform="translate(-0.981 -0.418)">
    <path id="Path_51" data-name="Path 51" d="M32.529,64.678l-.145.375c-2.464,4.8-6.829,7.741-13.055,7.87a18.248,18.248,0,0,1-7.5-1.5,19.362,19.362,0,0,1-8.995-8.5C.262,57.939-.2,51,5.155,45.814c.083,0-.65,1.124-.567,1.124l-.147.48C.58,59.5,12.473,69.86,24.034,68.676a15.186,15.186,0,0,0,8.5-4Z" transform="translate(0 -40.509)" fill="black" fill-rule="evenodd"/>
    <path id="Path_52" data-name="Path 52" d="M104.271,31.971a11.059,11.059,0,0,0,7.746-3.248c-1.574,4-6.131,6.564-12.243,5.747-5.117-.685-9.992-5.834-10.494-10.994-.367-3.755.942-6,3.1-8.715a9.12,9.12,0,0,0-1.1,3.218C90.459,26.1,97.767,31.929,104.271,31.971Z" transform="translate(-78.738 -12.799)" fill="black" fill-rule="evenodd"/>
    <path id="Path_53" data-name="Path 53" d="M180.53,9.083a9.118,9.118,0,0,1-4.205,3.241,8.011,8.011,0,0,1-8.995-3.645,11.231,11.231,0,0,1-.722-1.624c-.592-2.014-.32-5.06,1.447-6.636a8.3,8.3,0,0,0-.33,4.372,9.7,9.7,0,0,0,1.2,2.631,6.918,6.918,0,0,0,2.748,2.429,7.315,7.315,0,0,0,1.382.662c1.147.337,3.568,1.227,7.471-1.429Z" transform="translate(-147.544 0)" fill="black" fill-rule="evenodd"/>
  </g>
</svg>
