<?xml version="1.0" encoding="UTF-8"?>
<svg id="js" xmlns="http://www.w3.org/2000/svg" version="1.1" viewBox="0 0 32 32">
  <defs>
    <style>
      .cls-1 {
        fill: #fff;
        stroke-width: 0px;
      }
    </style>
  </defs>
  <path class="cls-1" d="M0,0v32h32V0H0ZM16.9,27.4c-.5.9-1.4,1.6-2.4,1.9-1.4.4-3,.2-4.3-.5-.8-.5-1.4-1.2-1.8-2,.8-.5,1.6-1,2.4-1.5,0,0,.1.2.2.3.2.5.6.9,1.1,1.1.8.3,1.6,0,2.1-.6.2-1.2.3-2.4.2-3.6,0-2.6,0-5.2,0-7.7h3c0,2.8,0,5.5,0,8.2,0,1.7.1,3.2-.5,4.5ZM29.3,26.6c-1,3.6-6.8,3.7-9.2,1.3-.5-.4-.8-.9-1.1-1.5q1.2-.7,2.4-1.4c.5.9,1.3,1.6,2.3,1.8,1.5.2,2.9-.3,2.6-1.9-.3-1.3-3-1.6-4.8-2.9,0,0,0,0-.1,0-1.8-1.5-2.1-4.1-.7-5.9.6-.7,1.4-1.1,2.3-1.3h.9c1.4-.3,2.8.2,3.8,1.2.3.3.6.7.8,1-1,.6-1,.6-2.3,1.5-.2-.6-.7-1-1.3-1.2,0,0,0,0,0,0-.8-.3-1.7,0-2,.9,0,.3,0,.6,0,.9.3.8,1.4,1.1,2.4,1.5,2.8,1.1,3.8,2.4,4,3.8.2.7.1,1.5,0,2.2Z"/>
</svg>