<svg xmlns="http://www.w3.org/2000/svg" width="40" height="43.333" viewBox="0 0 40 43.333">
  <path id="Path_67" data-name="Path 67" d="M23.99,3a3.522,3.522,0,0,0-1.742.449L5.732,12.984A3.506,3.506,0,0,0,4,16V33.3a3.486,3.486,0,0,0,1.732,3.018l4.336,2.5a7.06,7.06,0,0,0,3.8,1.032c3.117,0,4.9-1.883,4.9-5.15V16.851a.484.484,0,0,0-.482-.485H16.2a.476.476,0,0,0-.485.485V34.683c0,1.467-1.515,2.9-3.965,1.683L7.216,33.749a.5.5,0,0,1-.267-.449V16.018a.536.536,0,0,1,.267-.469L23.733,6.018a.484.484,0,0,1,.518,0l16.517,9.531a.53.53,0,0,1,.267.452V33.3a.524.524,0,0,1-.251.449L24.251,43.3a.567.567,0,0,1-.518,0l-4.251-2.516a.382.382,0,0,0-.4-.033,11.237,11.237,0,0,1-2.5,1.133c-.267.083-.684.249.15.716l5.514,3.268a3.49,3.49,0,0,0,3.483,0l16.536-9.551A3.486,3.486,0,0,0,44,33.3V16.018A3.486,3.486,0,0,0,42.268,13L25.732,3.449A3.522,3.522,0,0,0,23.99,3Zm4.443,13.343c-4.717,0-7.533,2-7.533,5.332,0,3.617,2.8,4.615,7.331,5.065,5.417.533,5.833,1.336,5.833,2.4,0,1.833-1.481,2.617-4.964,2.617-4.383,0-5.351-1.1-5.667-3.268a.467.467,0,0,0-.465-.4H20.816a.467.467,0,0,0-.465.469c0,2.783,1.517,6.1,8.75,6.1,5.233,0,8.232-2.064,8.232-5.664,0-3.567-2.417-4.518-7.484-5.2-5.15-.667-5.667-1.017-5.667-2.217,0-1,.451-2.314,4.251-2.314,3.383,0,4.649.731,5.166,3.014a.481.481,0,0,0,.465.384h2.152a.494.494,0,0,0,.348-.166.45.45,0,0,0,.117-.368C36.349,18.191,33.734,16.343,28.434,16.343Z" transform="translate(-4 -3)" fill="black"/>
</svg>
