<svg xmlns="http://www.w3.org/2000/svg" width="35.933" height="32" viewBox="0 0 35.933 32">
  <g id="react" transform="translate(-175.7 -78)">
    <path id="Path_56" data-name="Path 56" d="M211.633,94c0-2.38-2.981-4.636-7.551-6.035,1.055-4.658.586-8.364-1.48-9.551a3.211,3.211,0,0,0-1.641-.41v1.633a1.7,1.7,0,0,1,.835.19c1,.571,1.428,2.747,1.091,5.545-.081.688-.212,1.414-.374,2.153a35.5,35.5,0,0,0-4.651-.8,35.728,35.728,0,0,0-3.047-3.662c2.388-2.219,4.629-3.435,6.152-3.435V78c-2.014,0-4.651,1.436-7.317,3.926-2.666-2.476-5.3-3.9-7.317-3.9v1.633c1.516,0,3.765,1.209,6.152,3.413a34.594,34.594,0,0,0-3.025,3.655,34.2,34.2,0,0,0-4.658.806c-.168-.732-.293-1.443-.381-2.124-.344-2.8.081-4.973,1.069-5.552a1.63,1.63,0,0,1,.842-.19V78.037a3.266,3.266,0,0,0-1.655.41c-2.058,1.187-2.52,4.885-1.458,9.529C178.666,89.382,175.7,91.631,175.7,94s2.981,4.636,7.551,6.035c-1.055,4.658-.586,8.364,1.48,9.551a3.22,3.22,0,0,0,1.648.41c2.014,0,4.651-1.436,7.317-3.926,2.666,2.476,5.3,3.9,7.317,3.9a3.266,3.266,0,0,0,1.655-.41c2.058-1.187,2.52-4.885,1.458-9.529,4.541-1.4,7.507-3.655,7.507-6.028ZM202.1,89.118c-.271.945-.608,1.919-.989,2.893-.3-.586-.615-1.172-.959-1.758s-.7-1.157-1.055-1.714C200.134,88.694,201.137,88.884,202.1,89.118Zm-3.355,7.8c-.571.989-1.157,1.926-1.765,2.8-1.091.1-2.2.146-3.311.146s-2.212-.051-3.3-.139q-.912-1.307-1.772-2.783-.835-1.439-1.523-2.915c.454-.981.967-1.963,1.516-2.922.571-.989,1.157-1.926,1.765-2.8,1.091-.1,2.2-.146,3.311-.146s2.212.051,3.3.139q.912,1.307,1.772,2.783.835,1.439,1.523,2.915C199.8,94.978,199.292,95.959,198.742,96.919Zm2.366-.952c.4.981.732,1.963,1.011,2.915-.959.234-1.97.432-3.018.586.359-.564.718-1.143,1.055-1.736s.652-1.179.952-1.765Zm-7.427,7.815a30.2,30.2,0,0,1-2.036-2.344c.659.029,1.333.051,2.014.051s1.37-.015,2.036-.051A28.591,28.591,0,0,1,193.681,103.782Zm-5.449-4.314c-1.04-.154-2.043-.344-3-.579.271-.945.608-1.919.989-2.893.3.586.615,1.172.959,1.758S187.873,98.911,188.232,99.468Zm5.413-15.242a30.2,30.2,0,0,1,2.036,2.344c-.659-.029-1.333-.051-2.014-.051s-1.37.015-2.036.051A28.589,28.589,0,0,1,193.645,84.226Zm-5.42,4.314c-.359.564-.718,1.143-1.055,1.736s-.652,1.172-.952,1.758c-.4-.981-.732-1.963-1.011-2.915.96-.227,1.97-.425,3.018-.579ZM181.6,97.71C179,96.6,177.326,95.154,177.326,94S179,91.4,181.6,90.3c.63-.271,1.318-.513,2.029-.74a35.178,35.178,0,0,0,1.648,4.461,34.683,34.683,0,0,0-1.626,4.439C182.922,98.23,182.233,97.981,181.6,97.71Zm3.94,10.466c-1-.571-1.428-2.747-1.091-5.545.081-.688.212-1.414.374-2.153a35.5,35.5,0,0,0,4.651.8,35.729,35.729,0,0,0,3.047,3.662c-2.388,2.219-4.629,3.435-6.152,3.435A1.748,1.748,0,0,1,185.537,108.176ZM202.91,102.6c.344,2.8-.081,4.973-1.069,5.552a1.63,1.63,0,0,1-.842.19c-1.516,0-3.765-1.209-6.152-3.413a34.6,34.6,0,0,0,3.025-3.655,34.2,34.2,0,0,0,4.658-.806A20.5,20.5,0,0,1,202.91,102.6Zm2.82-4.885c-.63.271-1.318.513-2.029.74a35.178,35.178,0,0,0-1.648-4.461,34.682,34.682,0,0,0,1.626-4.439c.725.227,1.414.476,2.058.747,2.593,1.106,4.27,2.556,4.27,3.706S208.323,96.611,205.73,97.71Z" fill="white"/>
    <circle id="Ellipse_8" data-name="Ellipse 8" cx="3.347" cy="3.347" r="3.347" transform="translate(190.312 90.656)" fill="white"/>
  </g>
</svg>
