<svg xmlns="http://www.w3.org/2000/svg" width="42.691" height="32" viewBox="0 0 42.691 32">
  <path id="sass" d="M36.635,18.616a8.8,8.8,0,0,0-3.869.9,7.958,7.958,0,0,1-.867-2,5.535,5.535,0,0,1-.075-1.684,13.5,13.5,0,0,1,.509-1.818c-.008-.075-.092-.442-.951-.45s-1.6.167-1.684.392a9.577,9.577,0,0,0-.359,1.276,30.35,30.35,0,0,1-2.61,5.02,5.121,5.121,0,0,1-.592-1.468,5.535,5.535,0,0,1-.075-1.684,13.5,13.5,0,0,1,.509-1.818c-.008-.075-.092-.442-.951-.45s-1.6.167-1.684.392-.175.759-.359,1.276-2.26,5.153-2.8,6.362c-.275.617-.517,1.109-.692,1.443s-.008.025-.025.058l-.233.442v.008c-.117.208-.242.409-.3.409a2.781,2.781,0,0,1,.017-1.326c.309-1.609,1.059-4.119,1.051-4.211,0-.042.142-.484-.484-.709a.76.76,0,0,0-.876.15c-.05,0-.092.133-.092.133s.675-2.827-1.293-2.827c-1.234,0-2.935,1.343-3.777,2.568-.534.292-1.668.909-2.869,1.568-.459.25-.934.517-1.384.759l-.092-.1c-2.385-2.543-6.8-4.345-6.613-7.763.067-1.242.5-4.52,8.472-8.489,6.529-3.252,11.758-2.36,12.667-.375,1.293,2.835-2.793,8.105-9.581,8.864-2.585.292-3.944-.709-4.286-1.084-.359-.392-.409-.409-.542-.334-.217.117-.083.467,0,.675a4.025,4.025,0,0,0,2.452,1.926,12.994,12.994,0,0,0,7.947-.784c4.111-1.593,7.321-6.012,6.379-9.706-.959-3.761-7.2-4.995-13.092-2.9A29.679,29.679,0,0,0,3.48,7.017C.228,10.052-.289,12.7-.073,13.8c.759,3.928,6.171,6.488,8.339,8.38-.108.058-.208.117-.3.167-1.084.534-5.212,2.693-6.246,4.978C.553,29.915,1.9,31.775,2.8,32.025a6.664,6.664,0,0,0,7.18-2.91,7.2,7.2,0,0,0,.642-6.629l-.025-.05.851-.5c.55-.325,1.092-.625,1.568-.884a10.382,10.382,0,0,0-.559,2.835,5.912,5.912,0,0,0,1.276,4.119,1.412,1.412,0,0,0,1.026.334c.917,0,1.334-.759,1.793-1.668.567-1.109,1.067-2.393,1.067-2.393S17,27.755,18.706,27.755c.625,0,1.251-.809,1.534-1.226v.008s.017-.025.05-.083.068-.1.1-.158v-.017c.25-.434.809-1.426,1.643-3.069,1.076-2.118,2.11-4.77,2.11-4.77a15.22,15.22,0,0,0,.409,1.718,16.438,16.438,0,0,0,.892,2c-.25.35-.4.55-.4.55l.008.008c-.2.267-.425.55-.659.834a24.235,24.235,0,0,0-2,2.51.687.687,0,0,0,.183.917,1.669,1.669,0,0,0,1.051.167,4.68,4.68,0,0,0,1.568-.359,5.429,5.429,0,0,0,1.351-.709,3.007,3.007,0,0,0,1.293-2.66,5.348,5.348,0,0,0-.492-1.876c.075-.108.15-.217.225-.334a35.2,35.2,0,0,0,2.335-4.044,15.22,15.22,0,0,0,.409,1.718,12.043,12.043,0,0,0,.759,1.718A7.413,7.413,0,0,0,28.8,23.544c-.492,1.418-.108,2.06.617,2.21a2.22,2.22,0,0,0,1.142-.233A5.177,5.177,0,0,0,32,24.779a3.262,3.262,0,0,0,1.593-2.635,5.051,5.051,0,0,0-.359-1.559,8.124,8.124,0,0,1,4.136-.475c3.711.434,4.445,2.752,4.3,3.719A2.491,2.491,0,0,1,40.5,25.5c-.259.158-.342.217-.317.334.033.175.15.167.375.134a2.886,2.886,0,0,0,2.018-2.577c.1-2.294-2.076-4.8-5.937-4.77ZM8.016,28.264C6.79,29.606,5.064,30.115,4.33,29.681c-.792-.459-.484-2.435,1.026-3.861a19.62,19.62,0,0,1,2.894-2.16c.175-.108.442-.267.759-.459a.889.889,0,0,1,.083-.05c.058-.033.125-.075.192-.117a5.319,5.319,0,0,1-1.267,5.228Zm8.964-6.1c-.425,1.042-1.326,3.719-1.868,3.569-.467-.125-.75-2.151-.092-4.153a9.271,9.271,0,0,1,1.459-2.677c.676-.75,1.409-1,1.593-.692C18.289,18.616,17.247,21.518,16.98,22.168Zm7.4,3.536c-.183.092-.35.158-.425.108-.058-.033.075-.158.075-.158s.926-.992,1.293-1.451c.208-.267.459-.575.725-.926v.1A3.08,3.08,0,0,1,24.377,25.7Zm5.7-1.3c-.133-.1-.117-.409.334-1.376a5.156,5.156,0,0,1,1.267-1.634,2.063,2.063,0,0,1,.125.717A2.346,2.346,0,0,1,30.08,24.4Z" transform="translate(0.116 -0.241)" fill="black"/>
</svg>
