<?xml version="1.0" encoding="UTF-8"?>
<svg id="Layer_1" data-name="Layer 1" xmlns="http://www.w3.org/2000/svg" version="1.1" viewBox="0 0 28.1 32">
  <defs>
    <style>
      .cls-1 {
        opacity: .5;
      }

      .cls-1, .cls-2 {
        fill: #fff;
        stroke-width: 0px;
      }
    </style>
  </defs>
  <g id="shopify">
    <path id="Path_57" data-name="Path 57" class="cls-2" d="M18.2,32l1.4-27.9h0l-1,.3c-.6-1.6-1.6-3.2-3.3-3.2h-.2c-.4-.6-1-.9-1.7-1-4.1,0-6.1,5.2-6.7,7.8l-2.9.9q-.9.3-1,1.2c0,.6-2.4,18.8-2.4,18.8l17.9,3.1M14.6,5.1h0c0,.1-3.2,1.1-3.2,1.1.6-2.4,1.8-3.5,2.8-3.9.3.9.5,1.8.4,2.8ZM13,1.1c.2,0,.4,0,.5.2-1.3.6-2.7,2.2-3.3,5.3l-2.5.8c.7-2.4,2.4-6.3,5.3-6.3ZM13.8,14.9v.2c-.9-.4-1.7-.6-2.5-.6-1.9,0-2,1.2-2,1.5,0,1.7,4.3,2.3,4.3,6.2s-1.9,5-4.5,5-3.5-.7-4.7-2l.8-2.8c.9.8,1.9,1.2,3,1.4.7,0,1.2-.5,1.3-1.2,0-1.1-.9-1.7-1.8-2.4-.9-.8-1.8-1.7-1.8-3.5,0-3.6,2.1-5.9,6.5-5.9s1.7.1,2.5.5l-1.2,3.6ZM15.7,4.9v-.3c0-.8-.1-1.7-.4-2.5.9.1,1.5,1.1,1.9,2.3l-1.5.5Z"/>
    <path class="cls-1" d="M28.1,29.9l-9.9,2.1,1.4-27.9h.3c0,0,.2,0,.3,0,0,0,.1.1.2.2,0,0,0,0,0,.2h0c0,.1.2.2.2.2l1.2,1.2s2.4.2,2.6.2h0s0,0,0,0c0,.1,3.5,23.6,3.5,23.6Z"/>
  </g>
</svg>