<svg xmlns="http://www.w3.org/2000/svg" xmlns:xlink="http://www.w3.org/1999/xlink" width="200" height="113.12" viewBox="0 0 200 113.12">
  <defs>
    <clipPath id="clip-path">
      <rect id="Rectangle_15" data-name="Rectangle 15" width="200" height="113.12" fill="white"/>
    </clipPath>
  </defs>
  <g id="Group_30" data-name="Group 30" transform="translate(0 0)">
    <path id="Path_47" data-name="Path 47" d="M0,0V12.231" transform="translate(96.054 50.443)" fill="none" stroke="white" stroke-width="2"/>
    <line id="Line_8" data-name="Line 8" x1="12.231" transform="translate(89.905 56.559)" fill="none" stroke="white" stroke-miterlimit="10" stroke-width="2"/>
    <g id="Group_18" data-name="Group 18" transform="translate(0 0.001)">
      <g id="Group_17" data-name="Group 17" clip-path="url(#clip-path)">
        <path id="Path_44" data-name="Path 44" d="M1.394,84.074c7.954,26.444,56.423,35.245,108.255,19.654s87.4-49.667,79.449-76.116S132.676-7.628,80.843,7.962-6.559,57.629,1.394,84.074Z" transform="translate(0.81 0.717)" fill="none" stroke="white" stroke-miterlimit="10" stroke-width="1.5"/>
        <path id="Path_45" data-name="Path 45" d="M15.8,20.485a7.9,7.9,0,1,1-7.9-7.9,7.9,7.9,0,0,1,7.9,7.9" transform="translate(0 36.075)" fill="white"/>
        <path id="Path_46" data-name="Path 46" d="M63.434,16.4a7.9,7.9,0,1,1-7.9-7.9,7.9,7.9,0,0,1,7.9,7.9" transform="translate(136.566 24.362)" fill="white"/>
      </g>
    </g>
  </g>
</svg>
