<?xml version="1.0" encoding="UTF-8"?>
<svg id="typescript" xmlns="http://www.w3.org/2000/svg" version="1.1" viewBox="0 0 32 32">
  <defs>
    <style>
      .cls-1 {
        fill: black;
        stroke-width: 0px;
      }
    </style>
  </defs>
  <path class="cls-1" d="M0,0v32h32V0H0ZM18.3,17.4h-4.2v11.8h-3v-11.8h-4.2v-1.3h0v-1.3h5.6c3.1,0,5.6,0,5.6,0,0,.4,0,.9,0,1.3v1.3ZM29.1,26.8c-.6,1.4-2,2.4-3.5,2.5-.8,0-1.6,0-2.4,0-1.2-.2-2.4-.8-3.2-1.7-.3-.4-.6-.8-.8-1.2l.3-.2,1.2-.7.9-.5.2.3c.3.5.7.9,1.2,1.2,1,.5,2.2.5,3.1-.2.3-.2.4-.6.4-1,0-.3,0-.6-.2-.8-.3-.4-.8-.6-2.2-1.3-1.1-.4-2.2-1-3-1.8-.4-.5-.7-1-.9-1.6-.1-.7-.1-1.4,0-2.1.3-1.6,1.6-2.8,3.3-3,.8,0,1.6,0,2.4,0h0c.8.2,1.5.6,2,1.2.3.3.6.7.8,1,0,0-1.4,1-2.2,1.5,0,0-.2-.1-.3-.3-.3-.5-.9-.9-1.5-.9-1,0-1.6.4-1.6,1.3s0,.4.2.6c.2.4.6.7,1.8,1.2,2.3,1,3.3,1.6,3.9,2.6.7,1.2.8,2.6.4,3.9Z"/>
</svg>